<svg width="7" height="9" viewBox="0 0 7 9" fill="none" xmlns="http://www.w3.org/2000/svg">
<path d="M5.53448 5.44248C5.58552 5.39775 5.64496 5.36382 5.70924 5.34274C5.77353 5.32165 5.84134 5.31383 5.90863 5.31975C5.97593 5.32566 6.04133 5.34519 6.10093 5.37716C6.16054 5.40914 6.21312 5.45291 6.25555 5.50586C6.29798 5.55881 6.32939 5.61986 6.34789 5.68536C6.3664 5.75086 6.37163 5.81948 6.36327 5.88711C6.35492 5.95475 6.33314 6.02002 6.29924 6.07903C6.26535 6.13804 6.22003 6.18958 6.16599 6.23058L3.21306 8.63967C3.10926 8.72424 2.97649 8.76387 2.84393 8.74983C2.71136 8.7358 2.58983 8.66926 2.50604 8.56482L0.122965 5.59086C0.0787067 5.53946 0.0451838 5.47957 0.0243954 5.41477C0.00360701 5.34997 -0.0040201 5.28159 0.00196802 5.2137C0.00795613 5.14581 0.0274368 5.07981 0.0592489 5.01964C0.0910611 4.95946 0.134553 4.90635 0.187129 4.86345C0.239705 4.82056 0.300288 4.78877 0.365265 4.76998C0.430242 4.75119 0.49828 4.74579 0.565323 4.7541C0.632365 4.7624 0.697037 4.78425 0.755481 4.81833C0.813925 4.85241 0.864942 4.89802 0.905491 4.95245L2.52598 6.97475L3.21622 0.454529C3.23039 0.320684 3.29668 0.197901 3.40051 0.11319C3.50435 0.0284789 3.63722 -0.0112204 3.76989 0.0028246C3.90257 0.0168696 4.02418 0.0835085 4.10797 0.188082C4.19177 0.292656 4.23089 0.426598 4.21672 0.560442L3.52648 7.08066L5.53448 5.44248Z" fill="#1F2935"/>
</svg>
