<svg width="7" height="9" viewBox="0 0 7 9" fill="none" xmlns="http://www.w3.org/2000/svg">
<path d="M0.832651 3.31008C0.781605 3.35482 0.722167 3.38874 0.657883 3.40983C0.5936 3.43091 0.525788 3.43873 0.458492 3.43282C0.391197 3.4269 0.325797 3.40738 0.266194 3.3754C0.206591 3.34342 0.154006 3.29965 0.111576 3.2467C0.069146 3.19375 0.0377403 3.13271 0.0192326 3.0672C0.000724853 3.0017 -0.00450571 2.93309 0.00385263 2.86545C0.012211 2.79781 0.033987 2.73254 0.0678819 2.67353C0.101777 2.61452 0.147096 2.56298 0.201136 2.52198L3.15407 0.112897C3.25787 0.0283198 3.39063 -0.0113036 3.5232 0.00272997C3.65577 0.0167636 3.77729 0.0833065 3.86109 0.187742L6.24416 3.1617C6.28842 3.21311 6.32194 3.273 6.34273 3.33779C6.36352 3.40259 6.37115 3.47098 6.36516 3.53886C6.35917 3.60675 6.33969 3.67275 6.30788 3.73292C6.27607 3.7931 6.23257 3.84622 6.18 3.88911C6.12742 3.932 6.06684 3.96379 6.00186 3.98258C5.93688 4.00137 5.86885 4.00677 5.8018 3.99846C5.73476 3.99016 5.67009 3.96831 5.61165 3.93424C5.5532 3.90016 5.50218 3.85454 5.46164 3.80011L3.84114 1.77782L3.15091 8.29803C3.13674 8.43188 3.07045 8.55466 2.96661 8.63937C2.86278 8.72408 2.72991 8.76378 2.59723 8.74974C2.46456 8.73569 2.34295 8.66906 2.25915 8.56448C2.17536 8.45991 2.13624 8.32597 2.15041 8.19212L2.84064 1.6719L0.832651 3.31008Z" fill="#20262E"/>
</svg>
